<svg width="25" height="13" viewBox="0 0 25 13" fill="none" xmlns="http://www.w3.org/2000/svg">
<path d="M4.07998 12.2761C3.68798 12.2761 3.31198 12.1041 2.95198 11.7601C2.59998 11.4161 2.31198 10.9161 2.08798 10.2601C1.86398 9.6121 1.75198 8.8281 1.75198 7.9081C1.75198 7.7961 1.75198 7.6801 1.75198 7.5601C1.75998 7.4401 1.76798 7.3161 1.77598 7.1881C1.69598 7.1961 1.61598 7.2001 1.53598 7.2001C1.46398 7.2001 1.39598 7.2001 1.33198 7.2001C0.867984 7.2001 0.527984 7.1401 0.311984 7.0201C0.103984 6.9001 -1.56276e-05 6.7441 -1.56276e-05 6.5521C-1.56276e-05 6.3601 0.0919844 6.1481 0.275984 5.9161C0.467984 5.6841 0.731984 5.4481 1.06798 5.2081C1.40398 4.9681 1.79198 4.7521 2.23198 4.5601C2.41598 3.8961 2.65598 3.1961 2.95198 2.4601C3.24798 1.7241 3.61598 0.956097 4.05598 0.156097C4.11198 0.0520973 4.19598 9.75132e-05 4.30798 9.75132e-05C4.37998 9.75132e-05 4.44398 0.0240974 4.49998 0.0720973C4.55598 0.120097 4.58398 0.184097 4.58398 0.264097C4.58398 0.304097 4.57198 0.356097 4.54798 0.420097C4.48398 0.548097 4.41998 0.680097 4.35598 0.816097C4.29198 0.944097 4.22798 1.0721 4.16398 1.2001C4.28398 1.1761 4.37598 1.1641 4.43998 1.1641C4.50398 1.1641 4.57998 1.1601 4.66798 1.1521C4.75598 1.1441 4.89198 1.1281 5.07598 1.1041C5.33198 1.0641 5.57198 1.0321 5.79598 1.0081C6.02798 0.984097 6.24398 0.972097 6.44398 0.972097C7.20398 0.972097 7.76398 1.1041 8.12398 1.3681C8.48398 1.6321 8.66398 1.9681 8.66398 2.3761C8.66398 2.8641 8.42798 3.4001 7.95598 3.9841C7.56398 4.4641 7.07199 4.9281 6.47998 5.3761C5.89598 5.8241 5.23598 6.2081 4.49998 6.5281C3.77198 6.8401 2.99598 7.0481 2.17198 7.1521C2.13998 7.3841 2.11598 7.6081 2.09998 7.8241C2.08398 8.0401 2.07598 8.2441 2.07598 8.4361C2.07598 9.1321 2.15598 9.7041 2.31598 10.1521C2.48398 10.6081 2.68798 10.9641 2.92798 11.2201C3.17598 11.4761 3.41998 11.6561 3.65998 11.7601C3.90798 11.8641 4.10798 11.9161 4.25998 11.9161C4.37998 11.9161 4.45998 11.8961 4.49998 11.8561C4.53198 11.8161 4.56798 11.7961 4.60798 11.7961C4.69598 11.7961 4.73998 11.8561 4.73998 11.9761C4.73998 12.0721 4.69598 12.1361 4.60798 12.1681C4.43998 12.2401 4.26398 12.2761 4.07998 12.2761ZM2.20798 6.9361C3.04798 6.7681 3.80798 6.5121 4.48798 6.1681C5.17598 5.8241 5.78398 5.4281 6.31199 4.9801C6.83998 4.5321 7.28398 4.0641 7.64399 3.5761C7.85198 3.3041 7.99998 3.0601 8.08799 2.8441C8.17598 2.6201 8.21998 2.4241 8.21998 2.2561C8.21998 1.9841 8.12398 1.7681 7.93198 1.6081C7.74798 1.4401 7.50398 1.3201 7.19999 1.2481C6.89598 1.1761 6.56798 1.1401 6.21598 1.1401C5.84798 1.1401 5.48398 1.1721 5.12398 1.2361C4.76398 1.3001 4.44398 1.3841 4.16398 1.4881C4.10798 1.5121 4.05998 1.5161 4.01998 1.5001C3.78798 2.0121 3.57598 2.5041 3.38398 2.9761C3.19998 3.4401 3.03598 3.8841 2.89198 4.3081C3.23598 4.1961 3.59598 4.1001 3.97198 4.0201C4.34798 3.9401 4.73598 3.8921 5.13598 3.8761H5.18398C5.26398 3.8761 5.30398 3.8921 5.30398 3.9241C5.30398 3.9481 5.26398 3.9761 5.18398 4.0081C5.11198 4.0401 4.98798 4.0601 4.81198 4.0681C4.44398 4.0841 4.09598 4.1321 3.76798 4.2121C3.43998 4.2841 3.12798 4.3761 2.83198 4.4881C2.67998 4.9521 2.55198 5.3881 2.44798 5.7961C2.35198 6.2041 2.27198 6.5841 2.20798 6.9361ZM1.37998 7.0321C1.44398 7.0321 1.50798 7.0321 1.57198 7.0321C1.64398 7.0241 1.71598 7.0161 1.78798 7.0081C1.81998 6.6641 1.86798 6.3081 1.93198 5.9401C1.99598 5.5641 2.07998 5.1761 2.18398 4.7761C1.67198 5.0401 1.26398 5.3361 0.959984 5.6641C0.655984 5.9841 0.503984 6.2681 0.503984 6.5161C0.503984 6.6681 0.575984 6.7921 0.719984 6.8881C0.863984 6.9841 1.08398 7.0321 1.37998 7.0321ZM9.7227 11.5441C8.9707 11.5441 8.4107 11.2521 8.0427 10.6681C7.6827 10.0841 7.5187 9.3081 7.5507 8.3401C7.2707 8.3721 7.0387 8.2761 6.8547 8.0521C6.6787 7.8281 6.5907 7.5121 6.5907 7.1041C6.5907 6.6961 6.6947 6.2161 6.9027 5.6641C7.1187 5.1121 7.4787 4.5201 7.9827 3.8881C8.2467 3.5601 8.5027 3.2641 8.7507 3.0001C8.9987 2.7281 9.2427 2.4801 9.4827 2.2561C9.7547 1.8081 10.0347 1.4201 10.3227 1.0921C10.6107 0.764097 10.8507 0.576097 11.0427 0.528097C11.0827 0.520097 11.1147 0.516097 11.1387 0.516097C11.1627 0.508097 11.1827 0.504097 11.1987 0.504097C11.2707 0.504097 11.3067 0.524097 11.3067 0.564097C11.3067 0.596097 11.2867 0.632097 11.2467 0.672097C11.2147 0.704098 11.1787 0.728097 11.1387 0.744097C11.0827 0.760097 11.0027 0.824097 10.8987 0.936097C10.7947 1.0481 10.6947 1.1641 10.5987 1.2841C10.5027 1.4041 10.4307 1.4921 10.3827 1.5481C10.7427 1.2921 11.0947 1.1081 11.4387 0.996098C11.7907 0.884098 12.1267 0.828098 12.4467 0.828098C12.9267 0.828098 13.3707 0.932097 13.7787 1.1401C14.1947 1.3481 14.5547 1.6201 14.8587 1.9561C15.1627 2.2921 15.4027 2.6601 15.5787 3.0601C15.7547 3.4521 15.8467 3.8401 15.8547 4.2241C15.8787 4.9441 15.7827 5.6441 15.5667 6.3241C15.3587 6.9961 15.0747 7.6241 14.7147 8.2081C14.3547 8.7841 13.9507 9.2921 13.5027 9.7321C13.0627 10.1721 12.6187 10.5161 12.1707 10.7641C11.2267 11.2841 10.4107 11.5441 9.7227 11.5441ZM10.1547 11.1601C10.4187 11.1601 10.7107 11.1081 11.0307 11.0041C11.3587 10.9081 11.7147 10.7561 12.0987 10.5481C12.5707 10.2921 13.0067 9.9401 13.4067 9.4921C13.8067 9.0361 14.1547 8.5281 14.4507 7.9681C14.7467 7.4081 14.9707 6.8361 15.1227 6.2521C15.2747 5.6601 15.3387 5.1001 15.3147 4.5721C15.2747 3.8361 15.1187 3.2161 14.8467 2.7121C14.5747 2.2081 14.2187 1.8241 13.7787 1.5601C13.3467 1.2961 12.8707 1.1641 12.3507 1.1641C11.9267 1.1641 11.4867 1.2561 11.0307 1.4401C10.5827 1.6241 10.1427 1.9121 9.7107 2.3041C9.2227 2.9761 8.8267 3.7801 8.5227 4.7161C8.2267 5.6521 8.0627 6.6681 8.0307 7.7641C8.0547 7.7721 8.0787 7.7761 8.1027 7.7761C8.1347 7.7761 8.1667 7.7761 8.1987 7.7761H8.3307C8.4507 7.7761 8.4947 7.7921 8.4627 7.8241C8.3187 7.9441 8.1827 8.0321 8.0547 8.0881C8.0707 8.6321 8.1507 9.1361 8.2947 9.6001C8.4387 10.0721 8.6627 10.4481 8.9667 10.7281C9.2707 11.0161 9.6667 11.1601 10.1547 11.1601ZM7.5507 7.9201C7.6387 7.0641 7.8107 6.2201 8.0667 5.3881C8.3307 4.5481 8.6347 3.7681 8.9787 3.0481C8.8427 3.2081 8.7027 3.3801 8.5587 3.5641C8.4227 3.7401 8.2867 3.9241 8.1507 4.1161C7.9507 4.3961 7.7547 4.6921 7.5627 5.0041C7.3787 5.3161 7.2267 5.6281 7.1067 5.9401C6.9867 6.2521 6.9267 6.5521 6.9267 6.8401C6.9267 7.0801 6.9787 7.3001 7.0827 7.5001C7.1387 7.6041 7.2067 7.6921 7.2867 7.7641C7.3747 7.8281 7.4627 7.8801 7.5507 7.9201ZM19.7011 12.2761C19.3091 12.2761 18.9331 12.1041 18.5731 11.7601C18.2211 11.4161 17.9331 10.9161 17.7091 10.2601C17.4851 9.6121 17.3731 8.8281 17.3731 7.9081C17.3731 7.7961 17.3731 7.6801 17.3731 7.5601C17.3811 7.4401 17.3891 7.3161 17.3971 7.1881C17.3171 7.1961 17.2371 7.2001 17.1571 7.2001C17.0851 7.2001 17.0171 7.2001 16.9531 7.2001C16.4891 7.2001 16.1491 7.1401 15.9331 7.0201C15.7251 6.9001 15.6211 6.7441 15.6211 6.5521C15.6211 6.3601 15.7131 6.1481 15.8971 5.9161C16.0891 5.6841 16.3531 5.4481 16.6891 5.2081C17.0251 4.9681 17.4131 4.7521 17.8531 4.5601C18.0371 3.8961 18.2771 3.1961 18.5731 2.4601C18.8691 1.7241 19.2371 0.956097 19.6771 0.156097C19.7331 0.0520973 19.8171 9.75132e-05 19.9291 9.75132e-05C20.0011 9.75132e-05 20.0651 0.0240974 20.1211 0.0720973C20.1771 0.120097 20.2051 0.184097 20.2051 0.264097C20.2051 0.304097 20.1931 0.356097 20.1691 0.420097C20.1051 0.548097 20.0411 0.680097 19.9771 0.816097C19.9131 0.944097 19.8491 1.0721 19.7851 1.2001C19.9051 1.1761 19.9971 1.1641 20.0611 1.1641C20.1251 1.1641 20.2011 1.1601 20.2891 1.1521C20.3771 1.1441 20.5131 1.1281 20.6971 1.1041C20.9531 1.0641 21.1931 1.0321 21.4171 1.0081C21.6491 0.984097 21.8651 0.972097 22.0651 0.972097C22.8251 0.972097 23.3851 1.1041 23.7451 1.3681C24.1051 1.6321 24.2851 1.9681 24.2851 2.3761C24.2851 2.8641 24.0491 3.4001 23.5771 3.9841C23.1851 4.4641 22.6931 4.9281 22.1011 5.3761C21.5171 5.8241 20.8571 6.2081 20.1211 6.5281C19.3931 6.8401 18.6171 7.0481 17.7931 7.1521C17.7611 7.3841 17.7371 7.6081 17.7211 7.8241C17.7051 8.0401 17.6971 8.2441 17.6971 8.4361C17.6971 9.1321 17.7771 9.7041 17.9371 10.1521C18.1051 10.6081 18.3091 10.9641 18.5491 11.2201C18.7971 11.4761 19.0411 11.6561 19.2811 11.7601C19.5291 11.8641 19.7291 11.9161 19.8811 11.9161C20.0011 11.9161 20.0811 11.8961 20.1211 11.8561C20.1531 11.8161 20.1891 11.7961 20.2291 11.7961C20.3171 11.7961 20.3611 11.8561 20.3611 11.9761C20.3611 12.0721 20.3171 12.1361 20.2291 12.1681C20.0611 12.2401 19.8851 12.2761 19.7011 12.2761ZM17.8291 6.9361C18.6691 6.7681 19.4291 6.5121 20.1091 6.1681C20.7971 5.8241 21.4051 5.4281 21.9331 4.9801C22.4611 4.5321 22.9051 4.0641 23.2651 3.5761C23.4731 3.3041 23.6211 3.0601 23.7091 2.8441C23.7971 2.6201 23.8411 2.4241 23.8411 2.2561C23.8411 1.9841 23.7451 1.7681 23.5531 1.6081C23.3691 1.4401 23.1251 1.3201 22.8211 1.2481C22.5171 1.1761 22.1891 1.1401 21.8371 1.1401C21.4691 1.1401 21.1051 1.1721 20.7451 1.2361C20.3851 1.3001 20.0651 1.3841 19.7851 1.4881C19.7291 1.5121 19.6811 1.5161 19.6411 1.5001C19.4091 2.0121 19.1971 2.5041 19.0051 2.9761C18.8211 3.4401 18.6571 3.8841 18.5131 4.3081C18.8571 4.1961 19.2171 4.1001 19.5931 4.0201C19.9691 3.9401 20.3571 3.8921 20.7571 3.8761H20.8051C20.8851 3.8761 20.9251 3.8921 20.9251 3.9241C20.9251 3.9481 20.8851 3.9761 20.8051 4.0081C20.7331 4.0401 20.6091 4.0601 20.4331 4.0681C20.0651 4.0841 19.7171 4.1321 19.3891 4.2121C19.0611 4.2841 18.7491 4.3761 18.4531 4.4881C18.3011 4.9521 18.1731 5.3881 18.0691 5.7961C17.9731 6.2041 17.8931 6.5841 17.8291 6.9361ZM17.0011 7.0321C17.0651 7.0321 17.1291 7.0321 17.1931 7.0321C17.2651 7.0241 17.3371 7.0161 17.4091 7.0081C17.4411 6.6641 17.4891 6.3081 17.5531 5.9401C17.6171 5.5641 17.7011 5.1761 17.8051 4.7761C17.2931 5.0401 16.8851 5.3361 16.5811 5.6641C16.2771 5.9841 16.1251 6.2681 16.1251 6.5161C16.1251 6.6681 16.1971 6.7921 16.3411 6.8881C16.4851 6.9841 16.7051 7.0321 17.0011 7.0321Z" fill="#841919"/>
</svg>
