<svg width="48" height="10" viewBox="0 0 48 10" fill="none" xmlns="http://www.w3.org/2000/svg">
<path d="M0.000177622 9V0.272727H2.94904C3.6337 0.272727 4.19336 0.396307 4.62802 0.643466C5.06552 0.887784 5.38938 1.21875 5.59961 1.63636C5.80984 2.05398 5.91495 2.51989 5.91495 3.03409C5.91495 3.5483 5.80984 4.01562 5.59961 4.43608C5.39222 4.85653 5.0712 5.19176 4.63654 5.44176C4.20188 5.68892 3.64506 5.8125 2.96609 5.8125H0.85245V4.875H2.932C3.40075 4.875 3.77717 4.79403 4.06126 4.6321C4.34535 4.47017 4.55131 4.25142 4.67915 3.97585C4.80984 3.69744 4.87518 3.38352 4.87518 3.03409C4.87518 2.68466 4.80984 2.37216 4.67915 2.09659C4.55131 1.82102 4.34393 1.60511 4.057 1.44886C3.77006 1.28977 3.38938 1.21023 2.91495 1.21023H1.057V9H0.000177622ZM14.981 4.63636C14.981 5.55682 14.8148 6.35227 14.4824 7.02273C14.15 7.69318 13.6941 8.21023 13.1145 8.57386C12.535 8.9375 11.873 9.11932 11.1287 9.11932C10.3844 9.11932 9.72248 8.9375 9.14293 8.57386C8.56339 8.21023 8.10742 7.69318 7.77504 7.02273C7.44265 6.35227 7.27646 5.55682 7.27646 4.63636C7.27646 3.71591 7.44265 2.92045 7.77504 2.25C8.10742 1.57955 8.56339 1.0625 9.14293 0.698864C9.72248 0.335227 10.3844 0.153409 11.1287 0.153409C11.873 0.153409 12.535 0.335227 13.1145 0.698864C13.6941 1.0625 14.15 1.57955 14.4824 2.25C14.8148 2.92045 14.981 3.71591 14.981 4.63636ZM13.9583 4.63636C13.9583 3.88068 13.8319 3.2429 13.579 2.72301C13.329 2.20312 12.9895 1.80966 12.5605 1.54261C12.1344 1.27557 11.6571 1.14205 11.1287 1.14205C10.6003 1.14205 10.1216 1.27557 9.69265 1.54261C9.26651 1.80966 8.92702 2.20312 8.67418 2.72301C8.42418 3.2429 8.29918 3.88068 8.29918 4.63636C8.29918 5.39205 8.42418 6.02983 8.67418 6.54972C8.92702 7.0696 9.26651 7.46307 9.69265 7.73011C10.1216 7.99716 10.6003 8.13068 11.1287 8.13068C11.6571 8.13068 12.1344 7.99716 12.5605 7.73011C12.9895 7.46307 13.329 7.0696 13.579 6.54972C13.8319 6.02983 13.9583 5.39205 13.9583 4.63636ZM16.758 9V0.272727H19.7069C20.3915 0.272727 20.9512 0.396307 21.3858 0.643466C21.8233 0.887784 22.1472 1.21875 22.3574 1.63636C22.5676 2.05398 22.6728 2.51989 22.6728 3.03409C22.6728 3.5483 22.5676 4.01562 22.3574 4.43608C22.15 4.85653 21.829 5.19176 21.3944 5.44176C20.9597 5.68892 20.4029 5.8125 19.7239 5.8125H17.6103V4.875H19.6898C20.1586 4.875 20.535 4.79403 20.8191 4.6321C21.1032 4.47017 21.3091 4.25142 21.437 3.97585C21.5676 3.69744 21.633 3.38352 21.633 3.03409C21.633 2.68466 21.5676 2.37216 21.437 2.09659C21.3091 1.82102 21.1017 1.60511 20.8148 1.44886C20.5279 1.28977 20.1472 1.21023 19.6728 1.21023H17.8148V9H16.758ZM24.3752 9V0.272727H29.6081V1.21023H25.432V4.15909H29.2161V5.09659H25.432V9H24.3752ZM31.4181 9V0.272727H32.475V8.0625H36.5318V9H31.4181ZM38.0318 9V2.45455H39.0375V9H38.0318ZM38.5431 1.36364C38.3471 1.36364 38.1781 1.29688 38.036 1.16335C37.8968 1.02983 37.8272 0.869318 37.8272 0.681818C37.8272 0.494318 37.8968 0.333807 38.036 0.200284C38.1781 0.0667613 38.3471 0 38.5431 0C38.7392 0 38.9068 0.0667613 39.046 0.200284C39.188 0.333807 39.2591 0.494318 39.2591 0.681818C39.2591 0.869318 39.188 1.02983 39.046 1.16335C38.9068 1.29688 38.7392 1.36364 38.5431 1.36364ZM41.5272 0.272727L43.7772 3.90341H43.8453L46.0953 0.272727H47.3397L44.5953 4.63636L47.3397 9H46.0953L43.8453 5.4375H43.7772L41.5272 9H40.2828L43.0953 4.63636L40.2828 0.272727H41.5272Z" fill="#841919"/>
</svg>
